<?xml version="1.0" encoding="UTF-8"?>
<svg id="Capa_1" xmlns="http://www.w3.org/2000/svg" width="32" height="32" viewBox="0 0 32 32">
  <defs>
    <style>
      .cls-1 {
        fill: #545386;
      }
    </style>
  </defs>
  <path class="cls-1" d="M16,0C7.16,0,0,7.16,0,16s7.16,16,16,16,16-7.16,16-16S24.84,0,16,0ZM16,30.5c-8.01,0-14.5-6.49-14.5-14.5S7.99,1.5,16,1.5s14.5,6.49,14.5,14.5-6.49,14.5-14.5,14.5Z"/>
  <g>
    <path class="cls-1" d="M15.9,14.66c2.3,0,4.16-1.88,4.16-4.18s-1.87-4.18-4.16-4.18-4.16,1.88-4.16,4.18,1.87,4.18,4.16,4.18Z"/>
    <path class="cls-1" d="M7.79,24.38c.18.08.38.14.58.21,2.47.75,5.02,1.13,7.58,1.13s4.95-.35,7.37-1.05c.38-.11.69-.22.87-.3.29-.11.45-.41.39-.71-.45-2.24-1.05-3.73-2.06-5.13-.91-1.26-2.67-2.62-4.37-2.62-1.28,0-2.43,0-3.44,0h-.85s0,0,0,0c-1.6,0-3.5,1.25-4.42,2.45-1.28,1.68-1.69,3.48-2.03,5.33-.05.29.1.58.38.69Z"/>
  </g>
</svg>