<?xml version="1.0" encoding="UTF-8"?>
<svg id="Capa_1" xmlns="http://www.w3.org/2000/svg" width="32" height="32" viewBox="0 0 32 32">
  <defs>
    <style>
      .cls-1 {
        fill: #545386;
      }

      .cls-2 {
        fill: #505082;
      }
    </style>
  </defs>
  <path class="cls-1" d="M16,0C7.16,0,0,7.16,0,16s7.16,16,16,16,16-7.16,16-16S24.84,0,16,0ZM16,30.5c-8.01,0-14.5-6.49-14.5-14.5S7.99,1.5,16,1.5s14.5,6.49,14.5,14.5-6.49,14.5-14.5,14.5Z"/>
  <g>
    <polygon class="cls-2" points="16.65 18.79 16.65 14.26 16.65 7.38 11.88 10.06 11.88 21.72 16.65 18.79"/>
    <polygon class="cls-2" points="7.12 19 11.88 21.72 16.65 18.79 16.65 8.12 20.88 10.53 20.88 16.21 21.29 16.62 21.29 10.06 16.64 7.33 15.13 8.21 15.53 18.04 11.99 20.93 7.91 18.52 7.91 8.31 12.17 10.91 11.88 10.06 7.12 7.33 7.12 19"/>
    <g>
      <path class="cls-2" d="M21.1,21.94l1.07-.92,2.71,2.83s-.23.92-.92.81l-2.87-2.72Z"/>
      <path class="cls-2" d="M19.59,15.72c-1.88,0-3.4,1.52-3.4,3.4s1.52,3.4,3.4,3.4,3.4-1.52,3.4-3.4-1.52-3.4-3.4-3.4ZM19.59,21.95c-1.56,0-2.83-1.27-2.83-2.83s1.27-2.83,2.83-2.83,2.83,1.27,2.83,2.83-1.27,2.83-2.83,2.83Z"/>
    </g>
  </g>
</svg>