<?xml version="1.0" encoding="UTF-8"?>
<svg id="Capa_1" xmlns="http://www.w3.org/2000/svg" width="32" height="32" viewBox="0 0 32 32">
  <defs>
    <style>
      .cls-1 {
        fill: #545386;
      }
    </style>
  </defs>
  <path class="cls-1" d="M16,0C7.16,0,0,7.16,0,16s7.16,16,16,16,16-7.16,16-16S24.84,0,16,0ZM16,30.5c-8.01,0-14.5-6.49-14.5-14.5S7.99,1.5,16,1.5s14.5,6.49,14.5,14.5-6.49,14.5-14.5,14.5Z"/>
  <path class="cls-1" d="M25.76,18.25v-2.13c0-.1-.07-.18-.17-.19-.03-.01-.06-.02-.1-.02h-1.54v-4.15c0-.14-.12-.26-.26-.26,0,0-.01,0-.02,0-.01,0-.02,0-.03,0h-2.4l2.87-5.51c.12-.56-.34-.82-.34-.82-.66-.36-1.08.15-1.08.15l.72.34-.28-.13s.2-.09.31-.05c.08.03.18.03.26.32l-1.01-.48-3.23,6.2s-.07-.02-.1-.02h-9.92c-.1-.74-.71-1.32-1.44-1.32h-.21c-.8,0-1.46.69-1.46,1.53v8.75c0,.84.66,1.53,1.46,1.53h13.26s.02,0,.03,0c0,0,.02,0,.03,0,.04,0,.08-.01.11-.03h0s.01,0,.01,0c.02-.02.04-.04.06-.06l2.53-2.42s.06-.04.07-.07h0s0,0,0,0c.02-.03.04-.07.04-.12v-.79h1.58c.13,0,.24-.11.24-.24,0,0,0,0,0,0ZM6.86,11.63c.1-.96.94-1.01.94-1.01,1.04,0,1.15,1.09,1.15,1.09v7.55c-1.25-.88-2.08,0-2.08,0v-7.64ZM7.8,19.37v.66c-.42,0-.83.22-.83.22,0-.66.83-.88.83-.88ZM8.94,20.37c-.1.78-.52.97-.52.97-1.04.44-1.46-.44-1.46-.44.42-.66.83-.22.83-.22.42,0,.42-.44.42-.44v-.88c.83,0,.73,1,.73,1ZM22.91,5.79l.69.33-.22.44-.68-.31.22-.45ZM22.51,6.7l.63.3-3.43,6.6-.63-.3,3.43-6.6ZM19.23,14.18l-.36.22-.02-.44.38.22ZM21.34,21.24v-1.72h1.81l-1.81,1.72ZM23.47,19.03h-2.34s0,0-.01,0c0,0,0,0-.01,0-.13,0-.23.1-.23.23v2.26h-11.82c.25-.27.4-.64.4-1.05v-8.38h9.71l-.75,1.44s-.03.08-.02.18v.94s-.07-.04-.12-.04h-7.12c-.12,0-.23.1-.23.23s.1.23.23.23h7.12c.07,0,.13-.04.18-.09.04.06.12.1.25.08l.99-.67s.13-.09.14-.18l1.1-2.11s.04,0,.07,0h2.43v3.82h-12.36c-.11,0-.2.09-.2.2v2.14c0,.06.03.12.08.16.04.05.11.09.18.09h12.33v.53ZM25.3,18.02h-13.95v-1.64h1.36v.71c0,.12.1.22.22.22s.22-.1.22-.22v-.71h1.39v.71c0,.12.1.22.22.22s.22-.1.22-.22v-.71h1.38v.71c0,.12.1.22.22.22s.22-.1.22-.22v-.71h1.39v.71c0,.12.1.22.22.22s.22-.1.22-.22v-.71h1.29v.71c0,.12.1.22.22.22s.22-.1.22-.22v-.71h1.39v.75c0,.12.1.22.22.22s.22-.1.22-.22v-.75h1.29v.7c0,.14.12.26.26.26s.26-.12.26-.26v-.7h1.34v1.64Z"/>
</svg>